<svg xmlns="http://www.w3.org/2000/svg">
    <symbol id="icon-check" viewBox="0 0 20 20">
        <title>Check</title>
        <path d="M7.984,15L4,11,6,9l2,2,6-6,2,2Z"/>
    </symbol>

    <symbol id="icon-phone" viewBox="0 0 24 24">
        <title>Phone</title>
        <path d="M16.5,24h-9A2.5,2.5,0,0,1,5,21.5V2.5A2.5,2.5,0,0,1,7.5,0h9A2.5,2.5,0,0,1,19,2.5v19A2.5,2.5,0,0,1,16.5,24ZM18,2.5A1.5,1.5,0,0,0,16.5,1h-9A1.5,1.5,0,0,0,6,2.5V4H18V2.5ZM18,5H6V19H18V5Zm0,15H6v1.5A1.5,1.5,0,0,0,7.5,23h9A1.5,1.5,0,0,0,18,21.5V20Zm-1.5,2h-2a0.5,0.5,0,1,1,0-1h2A0.5,0.5,0,1,1,16.5,22Zm-7,0h-2a0.5,0.5,0,1,1,0-1h2A0.5,0.5,0,1,1,9.5,22Zm2-20h1a0.5,0.5,0,1,1,0,1h-1A0.5,0.5,0,1,1,11.5,2Zm4.01,0h0.01A0.5,0.5,0,1,1,15.51,2Z"/>
    </symbol>

    <symbol id="icon-mail" viewBox="0 0 24 24">
        <title>Mail</title>
        <path d="M21.5,20H2.5A2.5,2.5,0,0,1,0,17.5V6.5A2.5,2.5,0,0,1,2.5,4h19A2.5,2.5,0,0,1,24,6.5v11A2.5,2.5,0,0,1,21.5,20ZM23,6.5A1.5,1.5,0,0,0,21.5,5H2.5A1.5,1.5,0,0,0,1,6.5v11A1.5,1.5,0,0,0,2.5,19h19A1.5,1.5,0,0,0,23,17.5V6.5ZM21.5,18a0.5,0.5,0,0,1-.32-0.116l-6-5a0.5,0.5,0,1,1,.641-0.768l6,5A0.5,0.5,0,0,1,21.5,18Zm-7.918-5.476a2.784,2.784,0,0,1-3.162,0l-8.2-5.611a0.5,0.5,0,1,1,.564-0.825l8.2,5.611a1.791,1.791,0,0,0,2.033,0l8.2-5.611a0.5,0.5,0,1,1,.564.825Zm-5.4-.408a0.5,0.5,0,1,1,.641.768l-6,5a0.5,0.5,0,1,1-.641-0.769Z"/>
    </symbol>
</svg>
