<svg xmlns="http://www.w3.org/2000/svg" width="16" height="26" viewBox="0 0 16 26">
  <metadata><?xpacket begin="﻿" id="W5M0MpCehiHzreSzNTczkc9d"?>
<x:xmpmeta xmlns:x="adobe:ns:meta/" x:xmptk="Adobe XMP Core 5.6-c140 79.160451, 2017/05/06-01:08:21        ">
   <rdf:RDF xmlns:rdf="http://www.w3.org/1999/02/22-rdf-syntax-ns#">
      <rdf:Description rdf:about=""/>
   </rdf:RDF>
</x:xmpmeta>
                                                                                                    
                                                                                                    
                                                                                                    
                                                                                                    
                                                                                                    
                                                                                                    
                                                                                                    
                                                                                                    
                                                                                                    
                                                                                                    
                                                                                                    
                                                                                                    
                                                                                                    
                                                                                                    
                                                                                                    
                                                                                                    
                                                                                                    
                                                                                                    
                                                                                                    
                                                                                                    
                           
<?xpacket end="w"?></metadata>
<defs>
    <style>
      .cls-1 {
        fill: #343e5c;
        fill-rule: evenodd;
      }
    </style>
  </defs>
  <path id="phone" class="cls-1" d="M796.5,51h-9a2.5,2.5,0,0,1-2.5-2.5v-19a2.5,2.5,0,0,1,2.5-2.5h9a2.5,2.5,0,0,1,2.5,2.5v19A2.5,2.5,0,0,1,796.5,51Zm-9-23a1.5,1.5,0,0,0-1.5,1.5v19a1.5,1.5,0,0,0,1.5,1.5h9a1.5,1.5,0,0,0,1.5-1.5v-19a1.5,1.5,0,0,0-1.5-1.5h-9Zm11,4h-13a0.5,0.5,0,1,1,0-1h13A0.5,0.5,0,1,1,798.5,32Zm0,15h-13a0.5,0.5,0,1,1,0-1h13A0.5,0.5,0,1,1,798.5,47Zm-6-17h-1a0.5,0.5,0,1,1,0-1h1A0.5,0.5,0,1,1,792.5,30Zm3.019,0a0.5,0.5,0,0,1-.5-0.5,0.5,0.5,0,0,1,.5-0.5h0.009A0.5,0.5,0,1,1,795.519,30ZM789.5,49h-2a0.5,0.5,0,1,1,0-1h2A0.5,0.5,0,1,1,789.5,49Zm7,0h-2a0.5,0.5,0,1,1,0-1h2A0.5,0.5,0,1,1,796.5,49Z" transform="translate(-784 -26)"/>
</svg>
