<svg xmlns="http://www.w3.org/2000/svg"><symbol id="icon-check" viewBox="0 0 20 20"><path d="M7.984 15L4 11l2-2 2 2 6-6 2 2z"/></symbol><symbol id="icon-phone" viewBox="0 0 24 24"><path d="M16.5 24h-9A2.5 2.5 0 0 1 5 21.5v-19A2.5 2.5 0 0 1 7.5 0h9A2.5 2.5 0 0 1 19 2.5v19a2.5 2.5 0 0 1-2.5 2.5zM18 2.5A1.5 1.5 0 0 0 16.5 1h-9A1.5 1.5 0 0 0 6 2.5V4h12V2.5zM18 5H6v14h12V5zm0 15H6v1.5A1.5 1.5 0 0 0 7.5 23h9a1.5 1.5 0 0 0 1.5-1.5V20zm-1.5 2h-2a.5.5 0 1 1 0-1h2a.5.5 0 1 1 0 1zm-7 0h-2a.5.5 0 1 1 0-1h2a.5.5 0 1 1 0 1zm2-20h1a.5.5 0 1 1 0 1h-1a.5.5 0 1 1 0-1zm4.01 0h.01a.5.5 0 1 1-.01 0z"/></symbol><symbol id="icon-mail" viewBox="0 0 24 24"><path d="M21.5 20h-19A2.5 2.5 0 0 1 0 17.5v-11A2.5 2.5 0 0 1 2.5 4h19A2.5 2.5 0 0 1 24 6.5v11a2.5 2.5 0 0 1-2.5 2.5zM23 6.5A1.5 1.5 0 0 0 21.5 5h-19A1.5 1.5 0 0 0 1 6.5v11A1.5 1.5 0 0 0 2.5 19h19a1.5 1.5 0 0 0 1.5-1.5v-11zM21.5 18a.5.5 0 0 1-.32-.116l-6-5a.5.5 0 1 1 .641-.768l6 5A.5.5 0 0 1 21.5 18zm-7.918-5.476a2.784 2.784 0 0 1-3.162 0l-8.2-5.611a.5.5 0 1 1 .564-.825l8.2 5.611a1.791 1.791 0 0 0 2.033 0l8.2-5.611a.5.5 0 1 1 .564.825zm-5.4-.408a.5.5 0 1 1 .641.768l-6 5a.5.5 0 1 1-.641-.769z"/></symbol></svg>