<svg xmlns="http://www.w3.org/2000/svg" width="16" height="26"><path id="phone" d="M796.5 51h-9a2.5 2.5 0 0 1-2.5-2.5v-19a2.5 2.5 0 0 1 2.5-2.5h9a2.5 2.5 0 0 1 2.5 2.5v19a2.5 2.5 0 0 1-2.5 2.5zm-9-23a1.5 1.5 0 0 0-1.5 1.5v19a1.5 1.5 0 0 0 1.5 1.5h9a1.5 1.5 0 0 0 1.5-1.5v-19a1.5 1.5 0 0 0-1.5-1.5h-9zm11 4h-13a.5.5 0 1 1 0-1h13a.5.5 0 1 1 0 1zm0 15h-13a.5.5 0 1 1 0-1h13a.5.5 0 1 1 0 1zm-6-17h-1a.5.5 0 1 1 0-1h1a.5.5 0 1 1 0 1zm3.019 0a.5.5 0 0 1-.5-.5.5.5 0 0 1 .5-.5h.009a.5.5 0 1 1-.009 1zM789.5 49h-2a.5.5 0 1 1 0-1h2a.5.5 0 1 1 0 1zm7 0h-2a.5.5 0 1 1 0-1h2a.5.5 0 1 1 0 1z" transform="translate(-784 -26)" fill="#343e5c" fill-rule="evenodd"/></svg>